<svg xmlns="http://www.w3.org/2000/svg" xmlns:xlink="http://www.w3.org/1999/xlink" width="496" zoomAndPan="magnify" viewBox="0 0 372 262.499992" height="350" preserveAspectRatio="xMidYMid meet" version="1.2"><defs><clipPath id="c674025446"><path d="M 0.355469 0 L 371.644531 0 L 371.644531 262 L 0.355469 262 Z M 0.355469 0 "/></clipPath><clipPath id="7710eba884"><path d="M 110 42 L 235 42 L 235 125 L 110 125 Z M 110 42 "/></clipPath><clipPath id="ff32ad9504"><path d="M 173.40625 0.00390625 L 235.027344 66.386719 L 172.484375 124.445312 L 110.863281 58.058594 Z M 173.40625 0.00390625 "/></clipPath><clipPath id="2bcfa7a2a4"><path d="M 173.40625 0.00390625 L 235.027344 66.386719 L 136.824219 157.546875 L 75.199219 91.164062 Z M 173.40625 0.00390625 "/></clipPath></defs><g id="a061dbb7ed"><g clip-rule="nonzero" clip-path="url(#c674025446)"><path style=" stroke:none;fill-rule:nonzero;fill:#ffffff;fill-opacity:1;" d="M 0.355469 0 L 371.644531 0 L 371.644531 262 L 0.355469 262 Z M 0.355469 0 "/></g><g clip-rule="nonzero" clip-path="url(#7710eba884)"><g clip-rule="nonzero" clip-path="url(#ff32ad9504)"><g clip-rule="nonzero" clip-path="url(#2bcfa7a2a4)"><path style=" stroke:none;fill-rule:nonzero;fill:#00bf63;fill-opacity:1;" d="M 230.191406 66.824219 C 216.304688 78.953125 202.941406 90.292969 192.410156 92.738281 C 182.664062 94.996094 175.207031 89.550781 167.414062 82.917969 C 176.570312 80.03125 187.261719 77.816406 198.058594 75.582031 C 198.820312 75.425781 199.308594 74.679688 199.152344 73.917969 C 199.097656 73.660156 198.976562 73.429688 198.804688 73.246094 C 198.480469 72.898438 197.988281 72.722656 197.488281 72.824219 C 186.828125 75.03125 176.058594 77.253906 166.742188 80.179688 C 171.183594 69.847656 175.765625 60.832031 185.582031 58.558594 C 196.070312 56.125 212.703125 61.195312 230.191406 66.824219 Z M 147.273438 47.371094 C 150.929688 53.328125 154.03125 58.773438 154.417969 62.707031 C 154.78125 66.445312 152.617188 68.890625 149.699219 71.660156 L 149.699219 71.65625 C 147.898438 70.515625 146.285156 69.414062 145.058594 68.089844 C 143.867188 66.808594 143.074219 65.351562 142.890625 63.472656 C 142.511719 59.570312 144.648438 53.777344 147.273438 47.371094 Z M 234.023438 65.289062 C 233.863281 65.117188 233.65625 64.984375 233.425781 64.910156 C 215.476562 59.117188 196.863281 53.050781 184.949219 55.8125 C 172.777344 58.636719 167.792969 70.464844 163.175781 81.359375 C 161.933594 81.792969 160.722656 82.242188 159.546875 82.710938 C 157.039062 83.707031 154.703125 84.78125 152.492188 85.910156 L 151.28125 74.039062 C 154.300781 71.210938 157.742188 67.8125 157.21875 62.433594 C 156.703125 57.167969 152.289062 50.113281 148.222656 43.546875 C 148.171875 43.46875 148.117188 43.394531 148.054688 43.328125 C 147.765625 43.015625 147.34375 42.847656 146.910156 42.882812 C 146.386719 42.925781 145.925781 43.261719 145.722656 43.746094 C 142.792969 50.808594 139.574219 58.449219 140.089844 63.746094 C 140.34375 66.351562 141.46875 68.363281 142.996094 70.007812 C 144.550781 71.683594 146.5625 73.007812 148.46875 74.210938 L 148.46875 74.214844 L 149.808594 87.347656 C 144.085938 90.542969 139.207031 94.105469 134.425781 97.648438 L 134.421875 97.648438 L 134.390625 97.589844 C 134.375 97.558594 134.355469 97.527344 134.335938 97.5 L 133.6875 96.527344 C 133.664062 96.496094 133.644531 96.46875 133.621094 96.4375 L 132.898438 95.519531 C 132.878906 95.488281 132.855469 95.460938 132.832031 95.4375 L 132.039062 94.570312 C 132.039062 94.570312 132.035156 94.566406 132.035156 94.566406 C 132.011719 94.539062 131.988281 94.515625 131.964844 94.496094 L 131.078125 93.667969 C 131.054688 93.640625 131.023438 93.617188 130.996094 93.59375 L 130.050781 92.839844 C 130.019531 92.816406 129.992188 92.792969 129.960938 92.773438 L 128.957031 92.09375 C 128.925781 92.074219 128.894531 92.054688 128.863281 92.035156 L 127.808594 91.4375 C 127.777344 91.421875 127.746094 91.402344 127.710938 91.386719 L 126.617188 90.875 C 126.582031 90.859375 126.546875 90.84375 126.511719 90.832031 L 125.378906 90.40625 C 125.34375 90.394531 125.308594 90.382812 125.273438 90.371094 L 124.109375 90.039062 C 124.074219 90.027344 124.039062 90.019531 124.003906 90.011719 L 122.816406 89.769531 C 122.78125 89.761719 122.742188 89.753906 122.707031 89.75 L 121.503906 89.601562 C 121.46875 89.597656 121.433594 89.59375 121.394531 89.59375 L 120.1875 89.539062 C 120.148438 89.539062 120.113281 89.539062 120.074219 89.539062 L 118.863281 89.582031 C 118.828125 89.582031 118.792969 89.585938 118.753906 89.589844 L 117.550781 89.726562 C 117.515625 89.730469 117.476562 89.738281 117.441406 89.742188 L 116.253906 89.972656 C 116.21875 89.980469 116.179688 89.988281 116.144531 90 L 114.980469 90.324219 C 114.941406 90.332031 114.90625 90.34375 114.875 90.355469 L 113.734375 90.773438 C 113.699219 90.785156 113.667969 90.796875 113.632812 90.8125 L 112.53125 91.316406 C 112.496094 91.332031 112.464844 91.347656 112.433594 91.367188 L 112.417969 91.375 L 112.488281 90.660156 C 112.492188 90.625 112.496094 90.59375 112.496094 90.558594 L 112.523438 89.59375 C 112.523438 89.5625 112.523438 89.527344 112.523438 89.496094 L 112.484375 88.53125 C 112.480469 88.496094 112.480469 88.464844 112.476562 88.429688 L 112.367188 87.472656 C 112.363281 87.4375 112.359375 87.40625 112.351562 87.371094 L 112.179688 86.421875 C 112.171875 86.390625 112.164062 86.359375 112.15625 86.324219 L 111.914062 85.390625 C 111.90625 85.359375 111.898438 85.328125 111.886719 85.296875 L 111.582031 84.378906 C 111.570312 84.347656 111.558594 84.316406 111.546875 84.285156 L 111.175781 83.394531 C 111.164062 83.363281 111.148438 83.332031 111.136719 83.304688 L 110.703125 82.441406 C 110.6875 82.410156 110.671875 82.382812 110.65625 82.351562 L 110.164062 81.519531 C 110.148438 81.492188 110.128906 81.464844 110.109375 81.4375 L 109.5625 80.640625 C 109.542969 80.617188 109.523438 80.589844 109.503906 80.5625 L 108.898438 79.808594 C 108.878906 79.78125 108.855469 79.757812 108.835938 79.734375 L 108.179688 79.023438 C 108.179688 79.023438 108.179688 79.019531 108.175781 79.019531 C 108.15625 78.996094 108.132812 78.972656 108.109375 78.953125 L 107.394531 78.277344 C 107.367188 78.253906 107.34375 78.234375 107.316406 78.210938 L 106.554688 77.589844 C 106.53125 77.570312 106.503906 77.550781 106.476562 77.53125 L 105.671875 76.964844 C 105.644531 76.945312 105.613281 76.929688 105.585938 76.910156 L 104.742188 76.40625 C 104.714844 76.386719 104.683594 76.371094 104.65625 76.355469 L 103.777344 75.914062 C 103.746094 75.898438 103.71875 75.882812 103.6875 75.871094 L 102.78125 75.492188 C 102.75 75.476562 102.71875 75.464844 102.683594 75.453125 L 101.753906 75.140625 C 101.722656 75.128906 101.691406 75.121094 101.65625 75.113281 L 100.707031 74.863281 C 100.671875 74.855469 100.640625 74.847656 100.605469 74.84375 L 99.640625 74.664062 C 99.609375 74.660156 99.574219 74.652344 99.539062 74.648438 L 98.5625 74.542969 C 98.53125 74.539062 98.496094 74.535156 98.464844 74.535156 L 97.480469 74.496094 C 97.449219 74.496094 97.414062 74.496094 97.378906 74.496094 L 96.398438 74.527344 C 96.363281 74.527344 96.332031 74.53125 96.296875 74.535156 L 95.320312 74.636719 C 95.285156 74.640625 95.253906 74.644531 95.21875 74.648438 L 94.253906 74.820312 C 94.21875 74.828125 94.1875 74.835938 94.152344 74.84375 L 93.199219 75.082031 C 92.445312 75.273438 91.988281 76.039062 92.179688 76.792969 C 92.238281 77.03125 92.355469 77.238281 92.511719 77.40625 C 92.851562 77.769531 93.371094 77.945312 93.890625 77.8125 L 94.792969 77.585938 L 95.660156 77.429688 L 96.539062 77.339844 L 97.421875 77.3125 L 98.304688 77.34375 L 99.179688 77.441406 L 100.046875 77.601562 L 100.902344 77.824219 L 101.738281 78.105469 L 102.550781 78.449219 L 103.339844 78.847656 L 104.09375 79.300781 L 104.816406 79.804688 L 105.5 80.363281 L 106.144531 80.96875 L 106.730469 81.605469 L 107.273438 82.28125 L 107.765625 82.996094 L 108.207031 83.742188 L 108.59375 84.519531 L 108.925781 85.320312 L 109.203125 86.140625 L 109.417969 86.980469 L 109.574219 87.835938 L 109.671875 88.695312 L 109.707031 89.5625 L 109.683594 90.429688 L 109.597656 91.292969 L 109.449219 92.148438 L 109.234375 93.035156 C 109.117188 93.515625 109.257812 93.996094 109.570312 94.332031 C 109.644531 94.410156 109.726562 94.484375 109.820312 94.542969 L 109.820312 94.546875 C 109.839844 94.574219 109.855469 94.601562 109.875 94.632812 C 109.917969 94.695312 109.964844 94.757812 110.015625 94.8125 C 110.476562 95.308594 111.242188 95.414062 111.824219 95.027344 L 112.789062 94.386719 L 113.75 93.855469 L 114.75 93.398438 L 115.785156 93.023438 L 116.84375 92.726562 L 117.925781 92.515625 L 119.019531 92.394531 L 119.015625 92.394531 L 120.117188 92.355469 L 121.214844 92.402344 L 122.308594 92.539062 L 123.386719 92.757812 L 124.441406 93.0625 L 125.472656 93.449219 L 126.46875 93.914062 L 127.425781 94.457031 L 128.335938 95.074219 L 129.195312 95.761719 L 130 96.511719 L 130.71875 97.296875 L 131.375 98.132812 L 131.964844 99.019531 L 132.488281 99.945312 L 132.9375 100.910156 L 133.3125 101.90625 L 133.613281 102.925781 L 133.609375 102.925781 L 133.832031 103.964844 L 133.972656 105.019531 L 133.972656 105.023438 L 134.03125 106.082031 L 134.011719 107.148438 L 133.910156 108.207031 L 133.726562 109.253906 L 133.464844 110.285156 L 133.125 111.292969 L 132.710938 112.273438 L 132.222656 113.21875 L 131.636719 114.167969 C 131.296875 114.71875 131.382812 115.414062 131.804688 115.867188 C 131.886719 115.957031 131.988281 116.039062 132.097656 116.105469 C 132.117188 116.117188 132.136719 116.128906 132.15625 116.140625 L 132.152344 116.140625 C 132.464844 116.40625 132.894531 116.535156 133.332031 116.453125 L 134.316406 116.269531 L 135.261719 116.160156 L 136.210938 116.125 L 137.160156 116.15625 L 138.105469 116.253906 L 139.042969 116.425781 L 139.960938 116.660156 L 140.863281 116.964844 L 141.742188 117.332031 L 142.589844 117.765625 L 142.585938 117.765625 L 143.402344 118.253906 L 143.402344 118.257812 L 144.175781 118.804688 L 144.910156 119.410156 L 145.597656 120.066406 L 146.238281 120.773438 L 146.234375 120.773438 L 146.800781 121.492188 L 146.796875 121.492188 L 147.308594 122.25 L 147.765625 123.042969 L 148.167969 123.863281 L 148.507812 124.710938 L 148.789062 125.582031 L 149.011719 126.46875 L 149.167969 127.367188 L 149.261719 128.277344 L 149.289062 129.191406 L 149.253906 130.105469 L 149.15625 131.015625 L 148.996094 131.914062 L 148.769531 132.800781 L 148.46875 133.714844 C 148.300781 134.21875 148.4375 134.75 148.773438 135.113281 C 148.929688 135.28125 149.128906 135.414062 149.363281 135.492188 C 150.101562 135.734375 150.898438 135.335938 151.140625 134.597656 L 151.457031 133.632812 C 151.46875 133.601562 151.476562 133.570312 151.488281 133.539062 L 151.734375 132.558594 C 151.742188 132.527344 151.75 132.492188 151.757812 132.460938 L 151.9375 131.464844 C 151.941406 131.433594 151.945312 131.398438 151.949219 131.367188 L 152.058594 130.359375 C 152.0625 130.328125 152.066406 130.292969 152.066406 130.261719 L 152.105469 129.25 C 152.105469 129.214844 152.105469 129.183594 152.105469 129.152344 L 152.074219 128.136719 C 152.070312 128.105469 152.070312 128.074219 152.066406 128.039062 L 151.960938 127.03125 C 151.960938 127 151.953125 126.964844 151.949219 126.933594 L 151.773438 125.9375 C 151.769531 125.902344 151.761719 125.871094 151.753906 125.839844 L 151.511719 124.855469 C 151.503906 124.824219 151.496094 124.792969 151.484375 124.761719 L 151.171875 123.796875 C 151.164062 123.765625 151.152344 123.734375 151.140625 123.703125 L 150.761719 122.765625 C 150.746094 122.734375 150.734375 122.703125 150.71875 122.675781 L 150.277344 121.765625 C 150.261719 121.734375 150.246094 121.707031 150.230469 121.675781 L 149.722656 120.800781 C 149.707031 120.773438 149.691406 120.742188 149.671875 120.714844 L 149.105469 119.875 C 149.085938 119.847656 149.066406 119.824219 149.046875 119.796875 L 148.421875 119 C 148.402344 118.972656 148.378906 118.945312 148.359375 118.921875 L 147.652344 118.140625 C 147.648438 118.136719 147.644531 118.132812 147.640625 118.128906 C 147.621094 118.105469 147.601562 118.085938 147.578125 118.066406 L 146.816406 117.339844 C 146.792969 117.316406 146.769531 117.292969 146.742188 117.269531 L 145.929688 116.601562 C 145.902344 116.578125 145.875 116.558594 145.847656 116.539062 L 144.988281 115.929688 C 144.960938 115.910156 144.929688 115.890625 144.902344 115.871094 L 144 115.328125 C 143.972656 115.308594 143.941406 115.292969 143.910156 115.277344 L 142.972656 114.800781 C 142.941406 114.785156 142.910156 114.769531 142.878906 114.757812 L 141.90625 114.347656 C 141.875 114.335938 141.84375 114.324219 141.8125 114.3125 L 140.8125 113.976562 C 140.78125 113.964844 140.746094 113.957031 140.714844 113.949219 L 139.695312 113.683594 C 139.660156 113.675781 139.628906 113.667969 139.59375 113.664062 L 138.554688 113.476562 C 138.523438 113.46875 138.488281 113.464844 138.453125 113.460938 L 137.40625 113.351562 C 137.375 113.347656 137.339844 113.34375 137.304688 113.34375 L 136.253906 113.308594 C 136.21875 113.308594 136.183594 113.308594 136.148438 113.308594 L 135.316406 113.34375 L 135.742188 112.339844 C 135.753906 112.308594 135.765625 112.273438 135.777344 112.242188 L 136.152344 111.132812 C 136.164062 111.097656 136.171875 111.0625 136.179688 111.027344 L 136.46875 109.894531 C 136.476562 109.859375 136.484375 109.824219 136.492188 109.789062 L 136.691406 108.636719 C 136.699219 108.601562 136.703125 108.5625 136.707031 108.527344 L 136.816406 107.363281 C 136.820312 107.328125 136.824219 107.292969 136.824219 107.257812 L 136.847656 106.085938 C 136.847656 106.050781 136.847656 106.015625 136.84375 105.976562 L 136.78125 104.808594 C 136.777344 104.773438 136.773438 104.738281 136.769531 104.703125 L 136.613281 103.542969 C 136.609375 103.507812 136.605469 103.472656 136.597656 103.4375 L 136.355469 102.289062 C 136.347656 102.257812 136.339844 102.222656 136.328125 102.1875 L 136 101.0625 C 135.988281 101.027344 135.976562 100.996094 135.964844 100.960938 L 135.683594 100.21875 C 143.085938 94.730469 150.40625 89.375 160.585938 85.324219 C 161.78125 84.851562 163.019531 84.390625 164.292969 83.949219 L 164.289062 83.949219 C 172.390625 90.933594 181.210938 98.222656 193.046875 95.480469 C 204.914062 92.726562 219.644531 79.789062 233.917969 67.308594 C 234.300781 66.972656 234.472656 66.460938 234.371094 65.964844 C 234.316406 65.707031 234.195312 65.476562 234.023438 65.289062 Z M 120.59375 122.773438 C 120.585938 122.765625 120.574219 122.753906 120.566406 122.742188 L 119.980469 122.148438 C 119.957031 122.125 119.929688 122.101562 119.902344 122.078125 L 119.277344 121.53125 C 119.25 121.507812 119.222656 121.484375 119.195312 121.464844 L 118.527344 120.964844 C 118.5 120.945312 118.472656 120.925781 118.441406 120.90625 L 117.742188 120.457031 C 117.710938 120.4375 117.683594 120.417969 117.652344 120.402344 L 116.917969 120.007812 C 116.886719 119.992188 116.855469 119.976562 116.824219 119.960938 L 116.0625 119.621094 C 116.03125 119.605469 116 119.59375 115.96875 119.582031 L 115.183594 119.296875 C 115.152344 119.285156 115.117188 119.273438 115.085938 119.265625 L 114.28125 119.039062 C 114.25 119.03125 114.214844 119.023438 114.179688 119.015625 L 113.363281 118.851562 C 112.601562 118.699219 111.859375 119.191406 111.707031 119.953125 C 111.613281 120.414062 111.757812 120.871094 112.054688 121.191406 C 112.246094 121.398438 112.507812 121.550781 112.808594 121.609375 L 113.574219 121.765625 L 114.273438 121.960938 L 114.960938 122.210938 L 115.625 122.507812 L 116.265625 122.855469 L 116.882812 123.25 L 116.878906 123.25 L 117.464844 123.6875 L 118.011719 124.164062 L 118.527344 124.683594 L 118.523438 124.683594 L 119 125.238281 L 118.996094 125.238281 L 119.429688 125.828125 L 119.8125 126.445312 L 119.8125 126.449219 L 120.152344 127.09375 L 120.441406 127.765625 L 120.660156 128.386719 L 120.839844 129.027344 L 120.972656 129.675781 L 121.0625 130.332031 L 121.109375 130.992188 L 121.109375 131.65625 L 121.066406 132.316406 L 120.976562 132.972656 L 120.84375 133.625 L 120.667969 134.261719 L 120.449219 134.890625 L 120.191406 135.5 L 119.890625 136.089844 L 119.527344 136.699219 C 119.4375 136.851562 119.378906 137.011719 119.347656 137.175781 L 119.347656 137.171875 C 119.21875 137.390625 119.144531 137.648438 119.152344 137.921875 C 119.15625 138.28125 119.300781 138.605469 119.527344 138.847656 C 119.789062 139.132812 120.167969 139.308594 120.585938 139.300781 L 121.234375 139.285156 L 121.839844 139.3125 L 122.4375 139.378906 L 123.03125 139.484375 L 123.617188 139.628906 L 124.195312 139.808594 L 124.757812 140.027344 L 125.304688 140.28125 L 125.832031 140.570312 L 126.339844 140.894531 L 126.828125 141.25 L 127.292969 141.636719 L 127.730469 142.054688 L 128.140625 142.496094 L 128.140625 142.5 L 128.519531 142.96875 L 128.867188 143.460938 L 129.183594 143.976562 L 129.464844 144.515625 L 129.710938 145.066406 L 129.917969 145.632812 L 130.089844 146.214844 L 130.226562 146.804688 L 130.320312 147.402344 L 130.375 148.003906 L 130.390625 148.609375 L 130.367188 149.257812 C 130.351562 149.648438 130.496094 150.003906 130.742188 150.269531 C 130.988281 150.53125 131.332031 150.703125 131.71875 150.71875 C 132.496094 150.75 133.148438 150.144531 133.179688 149.367188 L 133.207031 148.667969 C 133.207031 148.640625 133.207031 148.609375 133.207031 148.578125 L 133.1875 147.882812 C 133.1875 147.851562 133.1875 147.820312 133.183594 147.789062 L 133.117188 147.097656 C 133.117188 147.066406 133.113281 147.035156 133.109375 147.003906 L 133 146.316406 C 132.992188 146.285156 132.988281 146.257812 132.980469 146.226562 L 132.828125 145.546875 C 132.820312 145.515625 132.8125 145.488281 132.804688 145.457031 L 132.605469 144.789062 C 132.597656 144.761719 132.585938 144.730469 132.578125 144.703125 L 132.335938 144.050781 C 132.324219 144.019531 132.3125 143.992188 132.300781 143.964844 L 132.019531 143.328125 C 132.003906 143.300781 131.992188 143.273438 131.976562 143.246094 L 131.652344 142.628906 C 131.640625 142.601562 131.625 142.574219 131.609375 142.546875 L 131.246094 141.953125 C 131.230469 141.929688 131.210938 141.902344 131.195312 141.878906 L 130.792969 141.308594 C 130.777344 141.28125 130.757812 141.257812 130.738281 141.234375 L 130.300781 140.691406 C 130.28125 140.667969 130.261719 140.644531 130.238281 140.625 L 129.769531 140.109375 C 129.765625 140.109375 129.765625 140.109375 129.765625 140.109375 C 129.746094 140.085938 129.722656 140.066406 129.703125 140.046875 L 129.199219 139.566406 C 129.179688 139.546875 129.15625 139.523438 129.132812 139.503906 L 128.597656 139.058594 C 128.574219 139.039062 128.550781 139.023438 128.527344 139.003906 L 127.964844 138.59375 C 127.941406 138.574219 127.914062 138.558594 127.890625 138.542969 L 127.300781 138.171875 C 127.277344 138.152344 127.25 138.136719 127.222656 138.125 L 126.613281 137.789062 C 126.585938 137.773438 126.558594 137.761719 126.53125 137.75 L 125.902344 137.457031 C 125.875 137.441406 125.847656 137.429688 125.816406 137.417969 L 125.167969 137.167969 C 125.140625 137.15625 125.113281 137.148438 125.082031 137.136719 L 124.421875 136.929688 C 124.390625 136.917969 124.363281 136.910156 124.332031 136.90625 L 123.65625 136.738281 C 123.628906 136.730469 123.597656 136.726562 123.566406 136.71875 L 122.882812 136.597656 C 122.851562 136.59375 122.824219 136.589844 122.792969 136.585938 L 122.785156 136.585938 L 123.058594 135.949219 C 123.070312 135.921875 123.082031 135.890625 123.09375 135.859375 L 123.34375 135.144531 C 123.351562 135.117188 123.363281 135.085938 123.371094 135.054688 L 123.570312 134.324219 C 123.578125 134.292969 123.585938 134.261719 123.59375 134.230469 L 123.746094 133.488281 C 123.75 133.457031 123.757812 133.425781 123.761719 133.394531 L 123.859375 132.644531 C 123.863281 132.613281 123.867188 132.582031 123.871094 132.550781 L 123.921875 131.792969 C 123.921875 131.761719 123.921875 131.730469 123.921875 131.699219 L 123.921875 130.941406 C 123.921875 130.910156 123.921875 130.878906 123.917969 130.847656 L 123.867188 130.09375 C 123.867188 130.058594 123.863281 130.027344 123.859375 129.996094 L 123.753906 129.246094 C 123.75 129.214844 123.746094 129.183594 123.738281 129.152344 L 123.585938 128.410156 C 123.578125 128.378906 123.574219 128.351562 123.5625 128.320312 L 123.363281 127.589844 C 123.351562 127.558594 123.34375 127.527344 123.332031 127.5 L 123.082031 126.785156 C 123.070312 126.753906 123.058594 126.722656 123.046875 126.691406 L 122.714844 125.925781 C 122.699219 125.894531 122.6875 125.863281 122.667969 125.832031 L 122.28125 125.09375 C 122.265625 125.0625 122.25 125.03125 122.230469 125.003906 L 121.789062 124.296875 C 121.773438 124.265625 121.753906 124.238281 121.730469 124.210938 L 121.242188 123.535156 C 121.21875 123.507812 121.199219 123.480469 121.175781 123.453125 L 120.636719 122.820312 C 120.621094 122.804688 120.609375 122.789062 120.59375 122.773438 Z M 120.59375 122.773438 "/></g></g></g><g style="fill:#00bf63;fill-opacity:1;"><g transform="translate(90.992247, 160.419445)"><path style="stroke:none" d="M 18.796875 -35.65625 L 44.390625 -35.65625 C 45.515625 -35.65625 46.484375 -35.273438 47.296875 -34.515625 C 48.140625 -33.628906 48.519531 -32.664062 48.4375 -31.625 L 46.5 -17.46875 C 46.101562 -14.613281 45.363281 -11.921875 44.28125 -9.390625 C 43.113281 -6.867188 41.492188 -4.734375 39.421875 -2.984375 C 37.359375 -1.234375 34.921875 -0.28125 32.109375 -0.125 L 26.5625 -0.125 C 25.476562 -0.164062 24.566406 -0.554688 23.828125 -1.296875 C 23.085938 -2.035156 22.695312 -2.945312 22.65625 -4.03125 C 22.65625 -5.15625 23.023438 -6.117188 23.765625 -6.921875 C 24.503906 -7.722656 25.4375 -8.144531 26.5625 -8.1875 L 31.140625 -8.1875 C 32.671875 -8.269531 34.007812 -8.851562 35.15625 -9.9375 C 36.300781 -11.019531 37.09375 -12.253906 37.53125 -13.640625 C 37.96875 -15.023438 38.289062 -16.539062 38.5 -18.1875 L 39.578125 -26.078125 C 39.703125 -27.046875 39.363281 -27.550781 38.5625 -27.59375 L 21.5625 -27.59375 C 21.164062 -25.863281 20.625 -24.21875 19.9375 -22.65625 C 18.769531 -20.125 17.148438 -17.984375 15.078125 -16.234375 C 13.015625 -14.484375 10.578125 -13.53125 7.765625 -13.375 L 6.453125 -13.375 C 5.359375 -13.414062 4.441406 -13.804688 3.703125 -14.546875 C 2.960938 -15.285156 2.570312 -16.203125 2.53125 -17.296875 C 2.53125 -18.410156 2.898438 -19.367188 3.640625 -20.171875 C 4.390625 -20.984375 5.328125 -21.410156 6.453125 -21.453125 L 6.8125 -21.453125 C 8.332031 -21.523438 9.664062 -22.101562 10.8125 -23.1875 C 11.957031 -24.269531 12.75 -25.503906 13.1875 -26.890625 C 13.632812 -28.273438 13.957031 -29.796875 14.15625 -31.453125 L 14.15625 -31.75 C 14.351562 -32.875 14.894531 -33.816406 15.78125 -34.578125 C 16.664062 -35.296875 17.671875 -35.65625 18.796875 -35.65625 Z M 30.609375 -42.40625 C 30.609375 -43.613281 31.03125 -44.640625 31.875 -45.484375 C 32.71875 -46.328125 33.738281 -46.75 34.9375 -46.75 C 36.144531 -46.75 37.171875 -46.328125 38.015625 -45.484375 C 38.859375 -44.640625 39.28125 -43.613281 39.28125 -42.40625 C 39.28125 -41.207031 38.859375 -40.1875 38.015625 -39.34375 C 37.171875 -38.5 36.144531 -38.078125 34.9375 -38.078125 C 33.738281 -38.078125 32.71875 -38.5 31.875 -39.34375 C 31.03125 -40.1875 30.609375 -41.207031 30.609375 -42.40625 Z M 40.96875 -42.40625 C 40.96875 -43.613281 41.390625 -44.640625 42.234375 -45.484375 C 43.078125 -46.328125 44.097656 -46.75 45.296875 -46.75 C 46.503906 -46.75 47.53125 -46.328125 48.375 -45.484375 C 49.21875 -44.640625 49.640625 -43.613281 49.640625 -42.40625 C 49.640625 -41.207031 49.21875 -40.1875 48.375 -39.34375 C 47.53125 -38.5 46.503906 -38.078125 45.296875 -38.078125 C 44.097656 -38.078125 43.078125 -38.5 42.234375 -39.34375 C 41.390625 -40.1875 40.96875 -41.207031 40.96875 -42.40625 Z M 40.96875 -42.40625 "/></g></g><g style="fill:#00bf63;fill-opacity:1;"><g transform="translate(143.992347, 160.419445)"><path style="stroke:none" d="M 8.796875 -36.625 C 9.878906 -36.582031 10.800781 -36.191406 11.5625 -35.453125 C 12.332031 -34.710938 12.734375 -33.800781 12.765625 -32.71875 L 12.765625 -15.609375 C 12.523438 -13.191406 11.203125 -11.882812 8.796875 -11.6875 C 7.671875 -11.6875 6.695312 -12.054688 5.875 -12.796875 C 5.050781 -13.546875 4.640625 -14.484375 4.640625 -15.609375 L 4.640625 -32.71875 C 4.679688 -33.832031 5.101562 -34.757812 5.90625 -35.5 C 6.707031 -36.25 7.671875 -36.625 8.796875 -36.625 Z M 34.8125 -36.625 C 35.90625 -36.582031 36.832031 -36.191406 37.59375 -35.453125 C 38.351562 -34.710938 38.753906 -33.800781 38.796875 -32.71875 L 38.796875 -17.46875 C 38.753906 -14.613281 38.351562 -11.921875 37.59375 -9.390625 C 36.789062 -6.867188 35.472656 -4.734375 33.640625 -2.984375 C 31.816406 -1.234375 29.5 -0.28125 26.6875 -0.125 L 22.828125 -0.125 C 21.742188 -0.164062 20.828125 -0.554688 20.078125 -1.296875 C 19.335938 -2.035156 18.953125 -2.945312 18.921875 -4.03125 C 18.921875 -5.15625 19.289062 -6.117188 20.03125 -6.921875 C 20.769531 -7.722656 21.703125 -8.144531 22.828125 -8.1875 L 24.640625 -8.1875 C 26.160156 -8.269531 27.421875 -8.851562 28.421875 -9.9375 C 29.429688 -11.019531 30.066406 -12.253906 30.328125 -13.640625 C 30.585938 -15.023438 30.695312 -16.539062 30.65625 -18.1875 L 30.65625 -32.71875 C 30.695312 -33.832031 31.117188 -34.757812 31.921875 -35.5 C 32.734375 -36.25 33.695312 -36.625 34.8125 -36.625 Z M 34.8125 -36.625 "/></g></g><g style="fill:#00bf63;fill-opacity:1;"><g transform="translate(187.958339, 160.419445)"><path style="stroke:none" d="M 3.859375 -18.125 C 3.859375 -19.25 4.25 -20.203125 5.03125 -20.984375 C 5.8125 -21.773438 6.765625 -22.171875 7.890625 -22.171875 L 38.140625 -22.171875 C 39.253906 -22.171875 40.21875 -21.789062 41.03125 -21.03125 C 41.789062 -20.21875 42.171875 -19.25 42.171875 -18.125 C 42.171875 -17.007812 41.773438 -16.054688 40.984375 -15.265625 C 40.203125 -14.484375 39.253906 -14.09375 38.140625 -14.09375 L 7.890625 -14.09375 C 6.765625 -14.09375 5.820312 -14.492188 5.0625 -15.296875 C 4.257812 -16.066406 3.859375 -17.007812 3.859375 -18.125 Z M 3.859375 -18.125 "/></g></g><g style="fill:#00bf63;fill-opacity:1;"><g transform="translate(233.851607, 160.419445)"><path style="stroke:none" d="M 3.609375 -31.625 C 3.609375 -32.75 4 -33.703125 4.78125 -34.484375 C 5.570312 -35.265625 6.53125 -35.65625 7.65625 -35.65625 L 23.1875 -35.65625 C 24.3125 -35.65625 25.273438 -35.273438 26.078125 -34.515625 C 26.847656 -33.710938 27.234375 -32.75 27.234375 -31.625 C 27.234375 -30.5 26.835938 -29.546875 26.046875 -28.765625 C 25.265625 -27.984375 24.3125 -27.59375 23.1875 -27.59375 L 7.65625 -27.59375 C 6.53125 -27.59375 5.582031 -27.992188 4.8125 -28.796875 C 4.007812 -29.554688 3.609375 -30.5 3.609375 -31.625 Z M 43.859375 -31.328125 L 38.3125 -14.21875 C 36.707031 -9.632812 34.695312 -6.175781 32.28125 -3.84375 C 29.875 -1.519531 27.242188 -0.28125 24.390625 -0.125 L 13.078125 -0.125 C 11.992188 -0.164062 11.078125 -0.554688 10.328125 -1.296875 C 9.585938 -2.035156 9.195312 -2.945312 9.15625 -4.03125 C 9.15625 -5.15625 9.523438 -6.117188 10.265625 -6.921875 C 11.015625 -7.722656 11.953125 -8.144531 13.078125 -8.1875 L 22.34375 -8.1875 C 23.875 -8.269531 25.3125 -8.851562 26.65625 -9.9375 C 28 -11.019531 29.007812 -12.253906 29.6875 -13.640625 C 30.375 -15.023438 30.960938 -16.539062 31.453125 -18.1875 L 36.390625 -33.96875 C 36.671875 -34.8125 37.082031 -35.503906 37.625 -36.046875 C 38.164062 -36.597656 39 -36.875 40.125 -36.875 C 41.207031 -36.875 42.140625 -36.46875 42.921875 -35.65625 C 43.703125 -34.851562 44.09375 -33.890625 44.09375 -32.765625 C 44.09375 -32.242188 44.015625 -31.765625 43.859375 -31.328125 Z M 43.859375 -31.328125 "/></g></g><g style="fill:#00bf63;fill-opacity:1;"><g transform="translate(19.22361, 227.549918)"><path style="stroke:none" d="M 3.609375 -31.625 C 3.609375 -32.75 4 -33.703125 4.78125 -34.484375 C 5.570312 -35.265625 6.53125 -35.65625 7.65625 -35.65625 L 33.671875 -35.65625 C 33.910156 -35.65625 34.148438 -35.640625 34.390625 -35.609375 L 34.765625 -35.609375 C 37.566406 -35.523438 39.867188 -34.769531 41.671875 -33.34375 C 43.484375 -31.914062 44.789062 -30.296875 45.59375 -28.484375 C 46.40625 -26.679688 46.8125 -24.859375 46.8125 -23.015625 C 46.8125 -21.085938 46.414062 -19.21875 45.625 -17.40625 C 44.84375 -15.601562 43.535156 -13.988281 41.703125 -12.5625 C 39.878906 -11.132812 37.566406 -10.441406 34.765625 -10.484375 L 29.09375 -10.484375 C 27.96875 -10.484375 27.023438 -10.882812 26.265625 -11.6875 C 25.460938 -12.445312 25.0625 -13.390625 25.0625 -14.515625 C 25.0625 -15.640625 25.453125 -16.59375 26.234375 -17.375 C 27.015625 -18.15625 27.96875 -18.546875 29.09375 -18.546875 L 35.125 -18.546875 C 35.882812 -18.546875 36.515625 -18.796875 37.015625 -19.296875 C 37.515625 -19.804688 37.882812 -20.390625 38.125 -21.046875 C 38.375 -21.710938 38.5 -22.390625 38.5 -23.078125 C 38.5 -23.710938 38.375 -24.363281 38.125 -25.03125 C 37.882812 -25.695312 37.515625 -26.28125 37.015625 -26.78125 C 36.515625 -27.28125 35.882812 -27.550781 35.125 -27.59375 L 7.65625 -27.59375 C 6.53125 -27.59375 5.582031 -27.992188 4.8125 -28.796875 C 4.007812 -29.554688 3.609375 -30.5 3.609375 -31.625 Z M 13.546875 -24.390625 C 14.554688 -24.753906 15.5625 -24.765625 16.5625 -24.421875 C 17.570312 -24.085938 18.335938 -23.414062 18.859375 -22.40625 L 26.75 -4.8125 C 27.507812 -2.570312 26.828125 -0.867188 24.703125 0.296875 C 23.691406 0.785156 22.65625 0.867188 21.59375 0.546875 C 20.53125 0.222656 19.78125 -0.457031 19.34375 -1.5 L 11.390625 -19.09375 C 10.984375 -20.132812 10.988281 -21.164062 11.40625 -22.1875 C 11.832031 -23.21875 12.546875 -23.953125 13.546875 -24.390625 Z M 13.546875 -24.390625 "/></g></g><g style="fill:#00bf63;fill-opacity:1;"><g transform="translate(70.115752, 227.549918)"><path style="stroke:none" d="M 24.578125 -37.34375 C 25.660156 -37.3125 26.582031 -36.929688 27.34375 -36.203125 C 28.070312 -35.484375 28.472656 -34.617188 28.546875 -33.609375 L 34.28125 -33.609375 C 34.519531 -33.609375 34.757812 -33.585938 35 -33.546875 L 35.359375 -33.546875 C 38.171875 -33.472656 40.476562 -32.863281 42.28125 -31.71875 C 44.09375 -30.570312 45.398438 -29.265625 46.203125 -27.796875 C 47.003906 -26.335938 47.40625 -24.863281 47.40625 -23.375 C 47.40625 -21.84375 47.015625 -20.34375 46.234375 -18.875 C 45.453125 -17.414062 44.15625 -16.125 42.34375 -15 C 42.101562 -14.84375 41.863281 -14.703125 41.625 -14.578125 L 44.578125 -10.84375 C 45.265625 -10 45.535156 -9.023438 45.390625 -7.921875 C 45.253906 -6.816406 44.765625 -5.921875 43.921875 -5.234375 C 43.035156 -4.515625 42.03125 -4.253906 40.90625 -4.453125 C 39.820312 -4.492188 38.914062 -4.976562 38.1875 -5.90625 L 32.40625 -13.25 L 28.546875 -13.25 L 28.546875 -3.1875 C 28.515625 -2.101562 28.113281 -1.191406 27.34375 -0.453125 C 26.582031 0.285156 25.660156 0.675781 24.578125 0.71875 C 23.453125 0.71875 22.488281 0.347656 21.6875 -0.390625 C 20.882812 -1.128906 20.460938 -2.0625 20.421875 -3.1875 L 20.421875 -13.25 L 19.578125 -13.25 C 17.367188 -13.207031 15.582031 -12.546875 14.21875 -11.265625 C 12.851562 -9.984375 11.890625 -8.800781 11.328125 -7.71875 L 10.234375 -6.265625 C 9.710938 -5.546875 9.117188 -4.992188 8.453125 -4.609375 C 7.796875 -4.222656 6.925781 -4.191406 5.84375 -4.515625 C 4.800781 -4.835938 4.015625 -5.488281 3.484375 -6.46875 C 2.960938 -7.457031 2.863281 -8.492188 3.1875 -9.578125 C 3.3125 -10.054688 3.515625 -10.5 3.796875 -10.90625 L 5.125 -12.765625 C 7.6875 -16.335938 9.863281 -18.613281 11.65625 -19.59375 C 13.445312 -20.582031 15.484375 -21.160156 17.765625 -21.328125 L 36.5 -21.328125 C 37.101562 -21.328125 37.597656 -21.445312 37.984375 -21.6875 C 38.367188 -21.925781 38.648438 -22.195312 38.828125 -22.5 C 39.003906 -22.800781 39.09375 -23.113281 39.09375 -23.4375 C 39.09375 -23.71875 39.003906 -24.007812 38.828125 -24.3125 C 38.648438 -24.613281 38.367188 -24.882812 37.984375 -25.125 C 37.597656 -25.363281 37.101562 -25.503906 36.5 -25.546875 L 7.171875 -25.546875 C 6.046875 -25.546875 5.101562 -25.945312 4.34375 -26.75 C 3.53125 -27.507812 3.125 -28.453125 3.125 -29.578125 C 3.125 -30.703125 3.515625 -31.65625 4.296875 -32.4375 C 5.085938 -33.21875 6.046875 -33.609375 7.171875 -33.609375 L 20.421875 -33.609375 C 20.503906 -34.660156 20.925781 -35.546875 21.6875 -36.265625 C 22.488281 -36.984375 23.453125 -37.34375 24.578125 -37.34375 Z M 24.578125 -37.34375 "/></g></g><g style="fill:#00bf63;fill-opacity:1;"><g transform="translate(120.646529, 227.549918)"><path style="stroke:none" d="M 42.53125 -31.328125 L 41.328125 -28.1875 C 39.554688 -23.613281 37.46875 -20.160156 35.0625 -17.828125 C 33.175781 -16.023438 31.164062 -14.863281 29.03125 -14.34375 L 29.03125 -3.1875 C 28.789062 -0.78125 27.46875 0.519531 25.0625 0.71875 C 23.9375 0.71875 22.960938 0.347656 22.140625 -0.390625 C 21.316406 -1.128906 20.90625 -2.0625 20.90625 -3.1875 L 20.90625 -14.09375 L 6.8125 -14.09375 C 5.726562 -14.132812 4.8125 -14.523438 4.0625 -15.265625 C 3.320312 -16.015625 2.929688 -16.929688 2.890625 -18.015625 C 2.890625 -19.140625 3.257812 -20.101562 4 -20.90625 C 4.75 -21.707031 5.6875 -22.128906 6.8125 -22.171875 L 25.125 -22.171875 C 26.644531 -22.253906 28.078125 -22.835938 29.421875 -23.921875 C 30.773438 -25.003906 31.789062 -26.238281 32.46875 -27.625 C 33.15625 -29.007812 33.78125 -30.484375 34.34375 -32.046875 L 35.0625 -33.96875 C 35.34375 -34.8125 35.753906 -35.503906 36.296875 -36.046875 C 36.835938 -36.597656 37.671875 -36.875 38.796875 -36.875 C 39.878906 -36.875 40.8125 -36.46875 41.59375 -35.65625 C 42.375 -34.851562 42.765625 -33.890625 42.765625 -32.765625 C 42.765625 -32.242188 42.6875 -31.765625 42.53125 -31.328125 Z M 42.53125 -31.328125 "/></g></g><g style="fill:#00bf63;fill-opacity:1;"><g transform="translate(166.539798, 227.549918)"><path style="stroke:none" d="M 3.609375 -31.625 C 3.609375 -32.75 4 -33.703125 4.78125 -34.484375 C 5.570312 -35.265625 6.53125 -35.65625 7.65625 -35.65625 L 25.125 -35.65625 C 26.25 -35.65625 27.210938 -35.273438 28.015625 -34.515625 C 28.773438 -33.710938 29.15625 -32.75 29.15625 -31.625 C 29.15625 -30.5 28.765625 -29.546875 27.984375 -28.765625 C 27.203125 -27.984375 26.25 -27.59375 25.125 -27.59375 L 7.65625 -27.59375 C 6.53125 -27.59375 5.582031 -27.992188 4.8125 -28.796875 C 4.007812 -29.554688 3.609375 -30.5 3.609375 -31.625 Z M 3.859375 -19.09375 C 3.859375 -20.21875 4.25 -21.171875 5.03125 -21.953125 C 5.8125 -22.742188 6.765625 -23.140625 7.890625 -23.140625 L 23.4375 -23.140625 C 24.5625 -23.140625 25.523438 -22.753906 26.328125 -21.984375 C 27.085938 -21.179688 27.46875 -20.21875 27.46875 -19.09375 C 27.46875 -17.96875 27.078125 -17.015625 26.296875 -16.234375 C 25.515625 -15.453125 24.5625 -15.0625 23.4375 -15.0625 L 7.890625 -15.0625 C 6.765625 -15.0625 5.820312 -15.460938 5.0625 -16.265625 C 4.257812 -17.023438 3.859375 -17.96875 3.859375 -19.09375 Z M 41.203125 -36.625 C 42.285156 -36.582031 43.15625 -36.191406 43.8125 -35.453125 C 44.476562 -34.710938 44.773438 -33.800781 44.703125 -32.71875 L 42.65625 -17.46875 C 42.25 -14.613281 41.503906 -11.921875 40.421875 -9.390625 C 39.253906 -6.867188 37.632812 -4.734375 35.5625 -2.984375 C 33.5 -1.234375 31.0625 -0.28125 28.25 -0.125 L 16.921875 -0.125 C 15.835938 -0.164062 14.925781 -0.554688 14.1875 -1.296875 C 13.445312 -2.035156 13.054688 -2.945312 13.015625 -4.03125 C 13.015625 -5.15625 13.382812 -6.117188 14.125 -6.921875 C 14.863281 -7.722656 15.796875 -8.144531 16.921875 -8.1875 L 27.296875 -8.1875 C 28.816406 -8.269531 30.148438 -8.851562 31.296875 -9.9375 C 32.441406 -11.019531 33.234375 -12.253906 33.671875 -13.640625 C 34.117188 -15.023438 34.441406 -16.539062 34.640625 -18.1875 L 36.5625 -32.71875 C 36.769531 -33.832031 37.3125 -34.757812 38.1875 -35.5 C 39.070312 -36.25 40.078125 -36.625 41.203125 -36.625 Z M 26.75 -42.40625 C 26.75 -43.613281 27.171875 -44.640625 28.015625 -45.484375 C 28.859375 -46.328125 29.878906 -46.75 31.078125 -46.75 C 32.285156 -46.75 33.3125 -46.328125 34.15625 -45.484375 C 35 -44.640625 35.421875 -43.613281 35.421875 -42.40625 C 35.421875 -41.207031 35 -40.1875 34.15625 -39.34375 C 33.3125 -38.5 32.285156 -38.078125 31.078125 -38.078125 C 29.878906 -38.078125 28.859375 -38.5 28.015625 -39.34375 C 27.171875 -40.1875 26.75 -41.207031 26.75 -42.40625 Z M 37.109375 -42.40625 C 37.109375 -43.613281 37.53125 -44.640625 38.375 -45.484375 C 39.21875 -46.328125 40.242188 -46.75 41.453125 -46.75 C 42.648438 -46.75 43.671875 -46.328125 44.515625 -45.484375 C 45.359375 -44.640625 45.78125 -43.613281 45.78125 -42.40625 C 45.78125 -41.207031 45.359375 -40.1875 44.515625 -39.34375 C 43.671875 -38.5 42.648438 -38.078125 41.453125 -38.078125 C 40.242188 -38.078125 39.21875 -38.5 38.375 -39.34375 C 37.53125 -40.1875 37.109375 -41.207031 37.109375 -42.40625 Z M 37.109375 -42.40625 "/></g></g><g style="fill:#00bf63;fill-opacity:1;"><g transform="translate(214.721707, 227.549918)"><path style="stroke:none" d="M 34.703125 -31.328125 L 30.234375 -17.71875 L 41.078125 -9.9375 C 42.003906 -9.257812 42.550781 -8.378906 42.71875 -7.296875 C 42.914062 -6.171875 42.671875 -5.164062 41.984375 -4.28125 C 41.347656 -3.351562 40.476562 -2.796875 39.375 -2.609375 C 38.269531 -2.429688 37.273438 -2.6875 36.390625 -3.375 L 26.921875 -10.125 C 26.804688 -9.882812 26.664062 -9.640625 26.5 -9.390625 C 24.894531 -6.867188 22.90625 -4.734375 20.53125 -2.984375 C 18.164062 -1.234375 15.5625 -0.28125 12.71875 -0.125 L 7.53125 -0.125 C 6.445312 -0.164062 5.53125 -0.554688 4.78125 -1.296875 C 4.039062 -2.035156 3.648438 -2.945312 3.609375 -4.03125 C 3.609375 -5.15625 3.976562 -6.117188 4.71875 -6.921875 C 5.46875 -7.722656 6.40625 -8.144531 7.53125 -8.1875 L 13.1875 -8.1875 C 14.71875 -8.269531 16.15625 -8.851562 17.5 -9.9375 C 18.84375 -11.019531 19.859375 -12.265625 20.546875 -13.671875 C 20.660156 -13.910156 20.78125 -14.171875 20.90625 -14.453125 L 5.0625 -25.84375 C 4.132812 -26.53125 3.613281 -27.414062 3.5 -28.5 C 3.25 -29.625 3.46875 -30.625 4.15625 -31.5 C 4.800781 -32.425781 5.675781 -32.976562 6.78125 -33.15625 C 7.882812 -33.34375 8.878906 -33.09375 9.765625 -32.40625 L 23.609375 -22.46875 L 27.234375 -33.96875 C 27.515625 -34.8125 27.925781 -35.503906 28.46875 -36.046875 C 29.007812 -36.597656 29.84375 -36.875 30.96875 -36.875 C 32.050781 -36.875 32.984375 -36.46875 33.765625 -35.65625 C 34.546875 -34.851562 34.9375 -33.890625 34.9375 -32.765625 C 34.9375 -32.242188 34.859375 -31.765625 34.703125 -31.328125 Z M 34.703125 -31.328125 "/></g></g><g style="fill:#00bf63;fill-opacity:1;"><g transform="translate(261.036568, 227.549918)"><path style="stroke:none" d="M 3.609375 -31.625 C 3.609375 -32.75 4 -33.703125 4.78125 -34.484375 C 5.570312 -35.265625 6.53125 -35.65625 7.65625 -35.65625 L 23.1875 -35.65625 C 24.3125 -35.65625 25.273438 -35.273438 26.078125 -34.515625 C 26.847656 -33.710938 27.234375 -32.75 27.234375 -31.625 C 27.234375 -30.5 26.835938 -29.546875 26.046875 -28.765625 C 25.265625 -27.984375 24.3125 -27.59375 23.1875 -27.59375 L 7.65625 -27.59375 C 6.53125 -27.59375 5.582031 -27.992188 4.8125 -28.796875 C 4.007812 -29.554688 3.609375 -30.5 3.609375 -31.625 Z M 43.859375 -31.328125 L 38.3125 -14.21875 C 36.707031 -9.632812 34.695312 -6.175781 32.28125 -3.84375 C 29.875 -1.519531 27.242188 -0.28125 24.390625 -0.125 L 13.078125 -0.125 C 11.992188 -0.164062 11.078125 -0.554688 10.328125 -1.296875 C 9.585938 -2.035156 9.195312 -2.945312 9.15625 -4.03125 C 9.15625 -5.15625 9.523438 -6.117188 10.265625 -6.921875 C 11.015625 -7.722656 11.953125 -8.144531 13.078125 -8.1875 L 22.34375 -8.1875 C 23.875 -8.269531 25.3125 -8.851562 26.65625 -9.9375 C 28 -11.019531 29.007812 -12.253906 29.6875 -13.640625 C 30.375 -15.023438 30.960938 -16.539062 31.453125 -18.1875 L 36.390625 -33.96875 C 36.671875 -34.8125 37.082031 -35.503906 37.625 -36.046875 C 38.164062 -36.597656 39 -36.875 40.125 -36.875 C 41.207031 -36.875 42.140625 -36.46875 42.921875 -35.65625 C 43.703125 -34.851562 44.09375 -33.890625 44.09375 -32.765625 C 44.09375 -32.242188 44.015625 -31.765625 43.859375 -31.328125 Z M 43.859375 -31.328125 "/></g></g><g style="fill:#00bf63;fill-opacity:1;"><g transform="translate(308.013913, 227.549918)"><path style="stroke:none" d="M 8.796875 -36.625 C 9.878906 -36.582031 10.800781 -36.191406 11.5625 -35.453125 C 12.332031 -34.710938 12.734375 -33.800781 12.765625 -32.71875 L 12.765625 -22.171875 L 36.921875 -22.171875 C 38.046875 -22.171875 39.007812 -21.789062 39.8125 -21.03125 C 40.582031 -20.21875 40.96875 -19.25 40.96875 -18.125 C 40.96875 -17.007812 40.570312 -16.054688 39.78125 -15.265625 C 39 -14.484375 38.046875 -14.09375 36.921875 -14.09375 L 12.765625 -14.09375 L 12.765625 -3.1875 C 12.523438 -0.78125 11.203125 0.519531 8.796875 0.71875 C 7.671875 0.71875 6.695312 0.347656 5.875 -0.390625 C 5.050781 -1.128906 4.640625 -2.0625 4.640625 -3.1875 L 4.640625 -32.71875 C 4.679688 -33.832031 5.101562 -34.757812 5.90625 -35.5 C 6.707031 -36.25 7.671875 -36.625 8.796875 -36.625 Z M 8.796875 -36.625 "/></g></g></g></svg>